<svg width="93" height="93" viewBox="0 0 93 93" fill="none" xmlns="http://www.w3.org/2000/svg">
<g clip-path="url(#clip0_215_326)">
<path d="M87.3427 17.5672V11.9096H81.6851V6.2522H17.5672V11.9096H11.9096V17.5672H6.2522V81.6851H11.9096V87.3427H17.5672V93.0001H81.6851V87.3427H87.3427V81.6851H93.0001V17.5672H87.3427Z" fill="url(#paint0_linear_215_326)"/>
<path d="M12.1305 0V6.06516H6.06516V12.1305H0V18.1957H12.1305V12.1305H18.1957V0H12.1305Z" fill="white"/>
<path d="M12.1303 6.06519H6.06519V12.1303H12.1303V6.06519Z" fill="white"/>
<path d="M86.9348 6.06519H80.8696V12.1303H86.9348V6.06519Z" fill="white"/>
<path d="M12.1303 80.8694H6.06519V86.9345H12.1303V80.8694Z" fill="white"/>
<path d="M86.9348 80.8694H80.8696V86.9345H86.9348V80.8694Z" fill="white"/>
<path d="M6.06516 12.1306H0V80.8698H6.06516V12.1306Z" fill="white"/>
<path d="M93.0002 12.1306H86.9351V80.8698H93.0002V12.1306Z" fill="white"/>
<path d="M80.8698 0H12.1306V6.06516H80.8698V0Z" fill="white"/>
<path d="M80.8698 86.9348H12.1306V93H80.8698V86.9348Z" fill="white"/>
<path d="M28.3044 34.3694H22.2393V58.6302H28.3044V34.3694Z" fill="white"/>
<path d="M70.761 34.3694H64.6958V58.6302H70.761V34.3694Z" fill="white"/>
<path d="M58.6305 22.2393H34.3696V28.3044H58.6305V22.2393Z" fill="white"/>
<path d="M58.6305 64.6956H34.3696V70.7607H58.6305V64.6956Z" fill="white"/>
<path d="M34.3696 28.3044H28.3044V34.3696H34.3696V28.3044Z" fill="white"/>
<path d="M64.6955 28.3044H58.6304V34.3696H64.6955V28.3044Z" fill="white"/>
<path d="M34.3696 58.6306H28.3044V64.6958H34.3696V58.6306Z" fill="white"/>
<path d="M64.6955 58.6306H58.6304V64.6958H64.6955V58.6306Z" fill="white"/>
<path d="M76.8263 16.1738H68.7393V24.2608H76.8263V16.1738Z" fill="white"/>
</g>
<defs>
<linearGradient id="paint0_linear_215_326" x1="49.6261" y1="6.2522" x2="49.6261" y2="93.0001" gradientUnits="userSpaceOnUse">
<stop stop-color="#49567D"/>
<stop offset="0.1309" stop-color="#4D5ED3"/>
<stop offset="0.356" stop-color="#D23A73"/>
<stop offset="1" stop-color="#F2A759"/>
</linearGradient>
<clipPath id="clip0_215_326">
<rect width="93" height="93" fill="white"/>
</clipPath>
</defs>
</svg>
