<svg width="93" height="93" viewBox="0 0 93 93" fill="none" xmlns="http://www.w3.org/2000/svg">
<g clip-path="url(#clip0_228_356)">
<path d="M24.2608 30.3262H0V93H24.2608V30.3262Z" fill="#004FAC"/>
<path d="M18.1957 6.06516V0H6.06516V6.06516H0V18.1957H6.06516V24.2608H18.1957V18.1957H24.2608V6.06516H18.1957Z" fill="#004FAC"/>
<path d="M86.9349 42.4565V36.3913H80.8696V30.3262H32.3479V93H54.5871V54.587H70.7609V93H93.0001V42.4565H86.9349Z" fill="#004FAC"/>
<path d="M6.06516 0V6.06516H0V12.1305H6.06516H12.1305V6.06516V0H6.06516Z" fill="white"/>
<path d="M48.5217 30.3262V42.4565H54.5871H60.6522V36.3913V30.3262H48.5217Z" fill="white"/>
<path d="M32.3479 30.3262V42.4565H38.4131H44.4784V36.3913V30.3262H32.3479Z" fill="white"/>
<path d="M0 30.3262V42.4565H6.06516H12.1305V36.3913V30.3262H0Z" fill="white"/>
<path d="M48.5217 86.9348H38.4131V36.3913H48.5217V42.4565H54.5871V36.3913H80.8696V30.3262H32.3479V93H54.5871V54.587H48.5217V86.9348Z" fill="black"/>
<path d="M86.9348 42.4565V86.9349H76.8261V54.587H70.7607V93H92.9999V42.4565H86.9348Z" fill="black"/>
<path d="M0 30.3262V93H24.2608V30.3262H0ZM18.1957 86.9348H6.06516V36.3913H18.1957V86.9348Z" fill="black"/>
<path d="M18.1957 0H6.06519V6.06516H18.1957V0Z" fill="black"/>
<path d="M18.1957 18.1956H6.06519V24.2607H18.1957V18.1956Z" fill="black"/>
<path d="M6.06516 6.06519H0V18.1957H6.06516V6.06519Z" fill="black"/>
<path d="M24.2607 6.06519H18.1956V18.1957H24.2607V6.06519Z" fill="black"/>
<path d="M86.9345 36.3914H80.8694V42.4565H86.9345V36.3914Z" fill="black"/>
<path d="M70.7607 48.5217H54.5869V54.5869H70.7607V48.5217Z" fill="black"/>
</g>
<defs>
<clipPath id="clip0_228_356">
<rect width="93" height="93" fill="white"/>
</clipPath>
</defs>
</svg>
