<svg width="93" height="93" viewBox="0 0 93 93" fill="none" xmlns="http://www.w3.org/2000/svg">
<path d="M80.8695 29.3153V17.1849H74.8043V11.1196H68.7392V5.05444H46.5V11.1196H40.4348V17.1849H34.3695V29.3153H26.2827V23.2501H18.1957V17.1849H12.1305V11.1196H0V45.4893H6.06516V51.5544H12.1305V57.6196H18.1957V69.7501H12.1305V75.8153H6.06516V87.9458H62.6738V81.8806H68.7392V75.8153H74.8043V69.7501H80.8695V47.5109H86.9348V41.4458H93V29.3153H80.8695Z" fill="#2488FF"/>
<path d="M18.1957 23.2501V17.185H12.1305V11.1196H0V23.2501H12.1305V29.3153H18.1957V35.3806H26.2827V23.2501H18.1957Z" fill="white"/>
<path d="M24.2609 57.6196V63.685H18.1957V69.7501H12.1305V75.8153H6.06519V87.9458H18.1957V75.8153H24.2609V69.7501H30.3262V57.6196H24.2609Z" fill="white"/>
<path d="M46.4999 5.05444V11.1196H40.4347V17.1849H34.3694V23.2501H46.4999V17.1849H52.5651V5.05444H46.4999Z" fill="white"/>
<path d="M68.7392 5.05444H46.5V11.1196H68.7392V5.05444Z" fill="black"/>
<path d="M24.2607 63.6847H30.3261V57.6194H18.1956V69.7499H24.2607V63.6847Z" fill="black"/>
<path d="M12.1305 75.8152H6.06519V87.9457H62.6739V81.8805H12.1305V75.8152Z" fill="black"/>
<path d="M46.5 11.1194H40.4348V17.1845H46.5V11.1194Z" fill="black"/>
<path d="M40.4349 35.3805V17.1848H34.3695V29.3151H26.2827V35.3805H40.4349Z" fill="black"/>
<path d="M74.8044 11.1194H68.7393V17.1845H74.8044V11.1194Z" fill="black"/>
<path d="M80.8696 29.3151V17.1848H74.8044V35.3805H86.935V41.4456H93.0001V29.3151H80.8696Z" fill="black"/>
<path d="M74.8044 69.75H68.7393V75.8152H74.8044V69.75Z" fill="black"/>
<path d="M18.1958 69.75H12.1306V75.8152H18.1958V69.75Z" fill="black"/>
<path d="M68.739 75.8152H62.6738V81.8804H68.739V75.8152Z" fill="black"/>
<path d="M86.9345 41.4456H80.8694V47.5107H86.9345V41.4456Z" fill="black"/>
<path d="M80.8696 47.5107H74.8044V69.7499H80.8696V47.5107Z" fill="black"/>
<path d="M26.2826 23.25H18.1956V29.3152H26.2826V23.25Z" fill="black"/>
<path d="M18.1958 17.1848H12.1306V23.25H18.1958V17.1848Z" fill="black"/>
<path d="M12.1305 17.1847V11.1194H0V45.4891H6.06516V17.1847H12.1305Z" fill="black"/>
<path d="M12.1303 45.4893H6.06519V51.5544H12.1303V45.4893Z" fill="black"/>
<path d="M18.1958 51.5544H12.1306V57.6196H18.1958V51.5544Z" fill="black"/>
</svg>
